#!OML:ASF F:\VICON\USERDATA\INSTALL\rory3\rory3.ASF
:FULLY-SPECIFIED
:DEGREES
2376
root -0.019332 16.7977 -2.47566 34.8356 1.63359 3.15538
lowerback 21.3926 0.698319 -0.727758
upperback 3.21979 0.576787 -1.7991
thorax -8.43177 0.270965 -1.70813
lowerneck -16.1149 3.64528 -8.92909
upperneck -4.66241 6.52458 12.2243
head 0.522839 3.75869 5.49927
rclavicle 3.97569e-016 -1.15295e-014
rhumerus 20.922 7.16483 -86.8418
rradius 95.5827
rwrist 32.2145
rhand 19.5775 1.74931
rfingers 7.12502
rthumb 44.1413 -22.0807
lclavicle 3.97569e-016 -1.15295e-014
lhumerus 23.412 -22.2457 83.8274
lradius 87.1602
lwrist -16.8726
lhand 15.2222 34.6934
lfingers 7.12502
lthumb 40.0608 59.9011
rfemur -60.0749 2.0481 11.2541
rtibia 37.8393
rfoot -13.0346 -7.9882
rtoes -23.1946
lfemur -59.9809 -11.858 -9.75313
ltibia 34.231
lfoot -9.96722 7.78138
ltoes -23.2971
2377
root -0.0153545 16.8163 -2.47319 34.92 1.4326 2.91702
lowerback 21.4539 0.795499 -0.846253
upperback 3.14171 0.668022 -1.84345
thorax -8.54933 0.315972 -1.71711
lowerneck -16.528 4.32226 -8.44976
upperneck -4.11426 7.33784 11.7149
head 0.685319 4.16567 5.30813
rclavicle -1.15295e-014 2.40529e-014
rhumerus 20.179 6.26906 -87.0819
rradius 95.72
rwrist 32.0803
rhand 18.8146 0.998849
rfingers 7.12502
rthumb 43.4292 -23.0937
lclavicle -1.15295e-014 2.40529e-014
lhumerus 24.1046 -22.5001 83.596
lradius 87.1641
lwrist -17.3683
lhand 15.8772 35.0648
lfingers 7.12502
lthumb 40.6767 60.0831
rfemur -59.8322 2.45421 11.2336
rtibia 37.0876
rfoot -12.646 -8.01811
rtoes -23.5138
lfemur -59.8956 -11.9142 -9.34522
ltibia 33.972
lfoot -9.85992 8.21363
ltoes -23.1256
2378
root -0.0123541 16.833 -2.47066 35.046 1.16626 2.70373
lowerback 21.415 0.959547 -1.15681
upperback 3.05614 0.813118 -1.79261
thorax -8.62464 0.394302 -1.52568
lowerneck -16.8048 4.87791 -8.25281
upperneck -3.69651 8.03927 11.3676
head 0.792853 4.51747 5.20655
rclavicle 5.36719e-015 0
rhumerus 19.4563 5.27041 -87.0535
rradius 96.0609
rwrist 31.7741
rhand 19.0159 0.477355
rfingers 7.12502
rthumb 43.6172 -23.5468
lclavicle 5.36719e-015 0
lhumerus 24.8037 -22.6214 83.5998
lradius 87.214
lwrist -18.1355
lhand 17.0087 35.043
lfingers 7.12502
lthumb 41.739 59.7199
rfemur -59.6911 2.89287 11.1477
rtibia 36.4421
rfoot -12.2791 -8.08817
rtoes -23.5902
lfemur -59.866 -11.9105 -9.0103
ltibia 33.7799
lfoot -9.83753 8.67285
ltoes -23.1477
2379
root -0.0128702 16.8501 -2.46666 35.1538 0.962121 2.43618
lowerback 21.3497 1.10762 -1.56191
upperback 2.9969 0.927077 -1.64344
thorax -8.66194 0.463079 -1.16313
lowerneck -17.159 5.35838 -8.24105
upperneck -3.28655 8.67895 11.2039
head 0.906199 4.84648 5.1952
rclavicle -1.59028e-015 -7.55382e-015
rhumerus 18.917 4.29475 -86.9491
rradius 96.3722
rwrist 31.18
rhand 19.8315 0.20165
rfingers 7.12502
rthumb 44.3781 -23.5388
lclavicle -1.59028e-015 -7.55382e-015
lhumerus 25.6343 -22.6185 83.5993
lradius 87.222
lwrist -18.6006
lhand 17.5562 34.8032
lfingers 7.12502
lthumb 42.2521 59.3082
rfemur -59.5619 3.3442 11.1608
rtibia 35.9125
rfoot -11.9378 -8.21653
rtoes -23.7773
lfemur -59.8449 -11.9357 -8.56759
ltibia 33.6427
lfoot -9.8517 9.11026
ltoes -22.8313
2380
root -0.00816945 16.8583 -2.46716 35.2977 0.98179 2.18175
lowerback 21.3036 1.16733 -1.65114
upperback 2.90564 0.993704 -1.5354
thorax -8.74083 0.499148 -1.01373
lowerneck -17.3815 5.7829 -8.14522
upperneck -3.0173 9.23016 11.0196
head 0.972833 5.12436 5.15435
rclavicle 2.20651e-014 -9.74045e-015
rhumerus 18.3839 3.22838 -86.8266
rradius 96.4338
rwrist 31.308
rhand 19.9272 0.11584
rfingers 7.12502
rthumb 44.4673 -23.5905
lclavicle 2.20651e-014 -9.74045e-015
lhumerus 26.5 -22.8378 83.5635
lradius 87.2271
lwrist -18.8066
lhand 17.5041 34.7107
lfingers 7.12502
lthumb 42.2033 59.2322
rfemur -59.5176 3.61178 11.2615
rtibia 35.4932
rfoot -11.677 -8.34724
rtoes -24.3252
lfemur -59.9966 -12.0699 -8.0485
ltibia 33.5852
lfoot -9.67838 9.52337
ltoes -23.909
